<?xml version="1.0" encoding="UTF-8" standalone="no"?>
<!-- Created with Inkscape (http://www.inkscape.org/) -->

<svg
   width="174.0421mm"
   height="67.089844mm"
   viewBox="0 0 174.0421 67.089844"
   version="1.1"
   id="svg5"
   inkscape:version="1.2.2 (732a01da63, 2022-12-09)"
   sodipodi:docname="shiprightTitle.svg"
   xmlns:inkscape="http://www.inkscape.org/namespaces/inkscape"
   xmlns:sodipodi="http://sodipodi.sourceforge.net/DTD/sodipodi-0.dtd"
   xmlns="http://www.w3.org/2000/svg"
   xmlns:svg="http://www.w3.org/2000/svg">
  <sodipodi:namedview
     id="namedview7"
     pagecolor="#505050"
     bordercolor="#ffffff"
     borderopacity="1"
     inkscape:showpageshadow="0"
     inkscape:pageopacity="0"
     inkscape:pagecheckerboard="1"
     inkscape:deskcolor="#505050"
     inkscape:document-units="mm"
     showgrid="false"
     inkscape:zoom="0.52221046"
     inkscape:cx="315.00709"
     inkscape:cy="128.30076"
     inkscape:window-width="1920"
     inkscape:window-height="1009"
     inkscape:window-x="-8"
     inkscape:window-y="-8"
     inkscape:window-maximized="1"
     inkscape:current-layer="layer1" />
  <defs
     id="defs2" />
  <g
     inkscape:label="Layer 1"
     inkscape:groupmode="layer"
     id="layer1"
     transform="translate(-16.272311,-111.04835)">
    <g
       id="g403"
       transform="matrix(2.3770824,0,0,1.2047021,-62.152634,-3.8102141)">
      <path
         style="fill:#000000;stroke-width:0.264583"
         id="path227"
         d="m 40.206264,115.44266 c 0.51648,0.0236 0.335857,0.0449 0.888153,-0.0638 2.037118,-0.40106 1.303162,-1.77294 0.806616,-4.73808 -0.04317,-0.25778 -0.527289,0.0268 -0.790934,0.0402 -1.482904,0.43194 -2.870937,1.14056 -4.197579,1.9438 -1.005572,0.60885 -2.203572,1.34461 -2.969932,2.28368 -0.300673,0.36844 -0.46161,0.82829 -0.692412,1.24243 -0.07232,1.84785 -0.364619,3.70956 -0.217008,5.54355 0.05789,0.71929 1.62238,2.06341 1.981903,2.42502 0.51577,0.51875 1.054246,1.01685 1.53558,1.56784 1.534847,1.75695 1.409809,1.78082 2.501226,3.78352 0.676187,5.00539 0.528651,-0.51552 0.375235,-0.72976 -0.295307,-0.41238 -0.434119,0.97609 -0.781791,1.37439 -1.401467,1.60557 -1.146479,0.5481 -2.924093,1.55254 -0.684762,0.38692 -1.254959,0.95431 -1.882436,1.43147 0,0 -0.0083,0.12426 -0.0083,0.12426 v 0 c 0.604147,0.78464 0.957616,1.84968 1.812437,2.35393 0.506915,0.29902 1.218729,-0.0316 1.794081,-0.22648 0.830023,-0.2811 2.270428,-1.29231 2.448848,-2.27947 0.357519,-1.97808 0.423188,-3.99807 0.362326,-5.98957 -0.01915,-0.62648 -0.399437,-1.17314 -0.599154,-1.75971 -0.378654,-0.59894 -0.718927,-1.22478 -1.135961,-1.79683 -0.87797,-1.20436 -2.022007,-2.35753 -2.994479,-3.48097 -0.376527,-0.43498 -0.792028,-0.84325 -1.099811,-1.33042 -0.250045,-0.39579 -0.341681,-1.72848 -0.558289,-1.29411 -0.455502,0.91343 -0.197268,2.0047 -0.295901,3.00705 0.176698,-0.43182 0.262597,-0.91011 0.530095,-1.29545 0.692692,-0.99784 1.84875,-1.67329 2.853457,-2.26494 1.254127,-0.73853 2.580023,-1.4248 4.004908,-1.7035 1.788237,-0.22408 0.650269,0.0568 0.754396,-4.24296 0.0034,-0.14017 -0.155018,0.24064 -0.243245,0.35331 -0.407511,0.52042 -0.899156,0.97132 -1.269967,1.52073 0,0 0.01205,2.64834 0.01205,2.64834 z" />
      <path
         style="fill:#000000;stroke-width:0.264583"
         id="path229"
         d="m 42.674723,111.69408 c -0.133919,-0.51332 -0.057,-1.07883 -0.276574,-1.57157 -0.0324,-0.0727 -0.06453,-0.18902 -0.144114,-0.1904 -0.180946,-0.003 -0.496374,-10e-4 -0.512553,0.17904 -0.149188,1.66225 0.03143,3.33772 0.04714,5.00659 0.538085,3.97418 1.135755,7.94018 1.745848,11.90387 0.540702,3.27899 1.108183,6.55285 1.599316,9.83973 0.285845,1.98374 -0.192024,4.63831 0.66984,-3.75858 0.01434,-0.13972 -0.02011,-0.28021 -0.03336,-0.42003 -0.02424,-0.25565 -0.06655,-0.50982 -0.07908,-0.76631 -0.01754,-0.35889 -0.0074,-0.71861 -0.01103,-1.07791 0.01765,1.05641 -0.05912,2.11863 0.05294,3.16922 0.04801,0.45007 0.07724,-0.90241 0.141054,-1.35051 0.182436,-1.281 0.491445,-2.52766 1.237523,-3.60874 0.184676,-0.2676 0.426746,-0.49066 0.640119,-0.73599 0.22337,-0.14738 0.419656,-0.34785 0.670105,-0.44213 0.689531,-0.25957 1.673305,0.17661 2.101774,0.72357 0.539197,0.68831 0.990989,2.042 1.287346,2.79826 0.686374,2.35732 0.3249,0.99506 0.856908,3.27406 0.08908,0.3816 0.107289,0.78821 0.272415,1.14358 0.03557,0.0765 0.192731,0.0462 0.2529,-0.013 0.101671,-0.10004 0.10841,-0.26387 0.162615,-0.3958 0,0 0.06909,-0.45004 0.06909,-0.45004 v 0 c 0.08459,-1.18284 0.194429,-2.16755 0.09811,-3.36907 -0.03851,-0.48031 -0.148328,-0.9528 -0.251145,-1.42355 -0.266565,-1.22048 -0.550209,-2.03052 -0.926296,-3.23753 -0.405365,-0.99225 -0.797412,-2.21301 -1.531527,-3.04597 -0.635376,-0.72093 -1.789973,-0.93601 -2.657377,-0.57966 -0.289179,0.11879 -0.524595,0.34021 -0.786892,0.51032 -0.241898,0.26825 -0.514303,0.51186 -0.725692,0.80475 -0.44246,0.61307 -0.92257,1.60272 -1.141539,2.31776 -0.131101,0.42809 -0.199718,0.87338 -0.274669,1.31478 -0.413825,2.43705 -0.211656,4.26944 -0.246801,7.07207 0.01257,0.38976 0.0114,0.78021 0.03769,1.1693 0.0195,0.28851 0.05019,0.57686 0.09957,0.86179 0.484433,2.79529 1.163955,-3.51321 0.655738,-4.9917 -0.544722,-3.14541 -1.139886,-6.28195 -1.655379,-9.43241 -0.637979,-4.01251 -1.251641,-8.03207 -1.692071,-12.07165 -0.0274,1.17259 0.103544,2.35966 -0.0822,3.51777 -0.02619,0.1633 -0.30032,-0.13881 -0.447696,-0.21386 -0.0069,-0.003 0.01802,-0.008 0.02297,-0.002 0.04251,0.0504 0.06103,0.12133 0.112329,0.16271 0.04277,0.0345 0.110477,0.0227 0.15589,0.0537 0.05668,0.0386 0.09448,0.0994 0.141729,0.14914 0,0 0.345011,-2.8231 0.345011,-2.8231 z" />
      <path
         style="fill:#000000;stroke-width:0.264583"
         id="path231"
         d="m 52.528085,127.53548 c 0.141819,2.13689 0.523764,4.24993 0.877613,6.35965 0.05027,0.21983 0.09385,0.44129 0.15082,0.65948 0.50565,1.93643 -0.07043,-5.09216 0.182605,-1.89177 0,0 0.05702,1.41452 0.05702,1.41452 v 0 c 0.107778,0.24521 0.287089,1.00104 0.323337,0.73565 0.242287,-1.77405 0.127087,-3.71747 -0.06202,-5.5208 -0.344209,-2.10344 -0.696312,-4.20975 -0.817176,-6.34079 0,0 -0.712195,4.58406 -0.712195,4.58406 z" />
      <path
         style="fill:#000000;stroke-width:0.264583"
         id="path233"
         d="m 51.781706,117.2001 c -0.04605,-0.23322 -0.07562,-0.47221 -0.179932,-0.68992 -0.02827,-0.059 -0.0878,-0.2152 -0.117782,-0.15704 -0.119047,0.23089 -0.12722,0.50372 -0.190828,0.75558 0,0 -0.165198,1.27041 -0.165198,1.27041 v 0 c -0.03177,0.75257 -0.159999,1.48626 0.216363,2.16685 0,0 0.437377,-3.34588 0.437377,-3.34588 z" />
      <g
         id="g360"
         transform="translate(-21.854041,-3.0452352)">
        <g
           id="g365">
          <path
             style="fill:#000000;stroke-width:0.264583"
             id="path235"
             d="m 73.603757,130.01806 c 0.480009,2.73736 1.083262,5.45309 1.664628,8.17063 0.331036,1.7729 0.823489,3.51427 1.157666,5.28612 0.212474,-1.68115 0.474163,-3.3568 0.637418,-5.04343 0.01492,-0.15408 -0.07175,-0.30117 -0.10547,-0.45225 -0.07542,-0.33793 -0.33532,-1.55026 -0.384506,-1.79582 -0.303538,-1.51537 -0.246015,-1.27062 -0.4884,-2.87676 -0.108508,1.10001 -0.258056,-4.354 -0.251441,-3.26309 0.0053,0.88135 -0.19262,1.80734 0.08865,2.64263 0.179358,0.53264 0.133204,-1.11707 0.239202,-1.66901 0.232653,-1.21147 0.404426,-1.58842 0.793213,-2.71481 0.362315,-0.76924 1.142709,-2.79926 2.361115,-2.47696 0.212982,0.0563 0.39352,0.19821 0.59028,0.29731 1.075097,0.8394 1.85021,2.00933 2.225252,3.32463 0.100689,0.35313 0.191621,1.44911 0.205975,1.08219 0.04517,-1.15477 -0.07518,-2.31009 -0.112768,-3.46513 -0.110971,0.33767 -0.164793,0.69984 -0.332917,1.01299 -0.439248,0.81816 -1.039762,1.24375 -1.725044,1.84214 -0.365506,0.31916 -0.789016,0.58055 -1.101378,0.95188 -0.417245,0.49602 -0.71125,1.08381 -1.066877,1.62571 0,0 0.0069,0.49105 0.0069,0.49105 v 0 c 0.400394,0.43477 0.674288,1.03651 1.201184,1.30432 0.366083,0.18608 0.837359,0.0516 1.230069,-0.0685 0.679612,-0.20782 1.604894,-0.98302 2.006494,-1.55454 0.218279,-0.31064 0.316802,-0.69007 0.475205,-1.0351 0.0086,-1.87095 0.100775,-3.74338 0.02582,-5.61284 -0.0141,-0.35142 -0.167154,-0.68506 -0.291534,-1.01403 -0.384154,-1.01606 -1.001781,-2.01128 -1.785747,-2.7676 -0.235146,-0.22686 -0.511387,-0.40684 -0.76708,-0.61025 -0.600028,-0.25564 -0.834607,-0.47909 -1.491922,-0.33168 -1.166881,0.26169 -1.722967,1.7436 -2.190329,2.66672 -0.436989,1.21882 -0.57458,1.4864 -0.860925,2.79845 -0.787683,3.60922 -0.507847,7.37608 -0.112208,11.02108 0.207775,1.38562 0.444781,2.76053 0.696879,4.1385 0.44473,2.43089 0.201369,3.33648 0.934058,-3.31739 -0.532805,-1.55846 -0.800317,-3.20145 -1.20863,-4.79269 -0.581607,-2.67947 -1.210842,-5.35483 -1.621724,-8.06685 0,0 -0.641119,4.27241 -0.641119,4.27241 z"
             transform="translate(1.0747889,-0.17913148)" />
          <path
             style="fill:#000000;stroke-width:0.264583"
             id="path237"
             d="m 81.748727,99.425168 c -0.263708,3.500272 0.203128,6.915932 0.602094,10.370482 0.293031,2.53728 0.292923,2.59706 0.567819,5.19424 0.491472,5.43392 1.068002,10.85901 1.663131,16.28241 0.234821,2.19243 0.467948,4.3854 0.654998,6.58253 0.03704,0.11851 -0.06273,0.4647 0.148301,0.46297 0.613154,-0.005 0.505667,0.13831 0.641946,-0.0807 0.169457,-2.69856 0.01894,-5.28115 -0.312307,-7.92793 -0.394086,-2.98605 -0.917038,-5.95273 -1.402754,-8.9247 -0.62443,-3.65085 -1.140762,-7.31765 -1.549744,-10.99853 -0.121055,-1.47263 -0.183841,-1.96769 -0.218599,-3.43206 -0.01225,-0.51636 -0.02172,-2.06568 -0.0019,-1.54954 0.212283,5.54832 -0.113755,3.53466 0.200361,2.07171 0.06725,-0.3132 0.199099,-0.60895 0.298646,-0.91342 0.141451,-0.24316 0.249637,-0.50901 0.424349,-0.72948 0.728959,-0.9199 2.017821,-1.45142 3.185623,-1.22336 0.367011,0.0717 0.708546,0.23938 1.062821,0.35907 0.978072,0.56725 1.423098,0.74277 2.24288,1.56906 1.180177,1.18954 2.012024,2.73041 2.595269,4.2864 0.208508,0.55626 0.352994,1.13445 0.52949,1.70168 0.112045,0.57713 0.156488,2.2912 0.336134,1.73141 0.266931,-0.83177 0.254858,-1.80187 -0.05092,-2.62016 -0.199565,-0.53406 -0.128413,1.14002 -0.298876,1.68407 -0.321882,1.02733 -0.879277,1.87667 -1.667965,2.60156 -0.349777,0.32148 -0.775168,0.54944 -1.162751,0.82417 -1.524011,0.79859 -3.209978,1.08169 -4.912418,1.01021 -1.850827,0.29125 -0.563875,0.0188 -0.377714,5.06357 0.0047,0.12653 0.241437,0.0769 0.359545,0.1225 0.693777,0.26802 1.337378,0.62519 1.987693,0.98278 1.969346,1.19603 3.801797,2.66104 5.271029,4.44697 0.334724,0.40688 0.628898,0.84548 0.943345,1.26822 1.075753,1.75017 1.856457,3.65764 2.486641,5.60738 0.171392,0.53026 0.322771,1.06683 0.490747,1.59819 0.05111,0.0794 0.06903,0.28047 0.15335,0.23805 0.12161,-0.0612 0.110278,-0.25113 0.137713,-0.38447 0.0662,-0.32172 0.09469,-0.65006 0.142036,-0.9751 0,0 0.110485,-0.71827 0.110485,-0.71827 v 0 c 0.10726,-0.92264 0.26559,-1.84828 0.0498,-2.76957 -0.70992,-2.5043 -1.807573,-4.90048 -3.152186,-7.12524 -0.328599,-0.42473 -0.63841,-0.86468 -0.985795,-1.2742 -1.539383,-1.81467 -3.406775,-3.34293 -5.398971,-4.63134 -0.28176,-0.17171 -0.563517,-0.34341 -0.845277,-0.51512 -0.225095,-0.13171 -0.452504,-0.25954 -0.675281,-0.39513 -0.146139,-0.0889 -0.303006,-0.16506 -0.43122,-0.27833 -0.03492,-0.0309 -0.03392,-0.18142 -0.03654,-0.13491 -0.280808,4.96778 -1.136701,6.20509 -0.173154,4.77633 0.54107,-0.15722 1.099558,-0.14666 1.655741,-0.23604 1.21108,-0.19463 2.386203,-0.52961 3.477286,-1.10318 1.09705,-0.74033 1.574912,-0.92328 2.369138,-2.04081 0.641472,-0.90259 1.135687,-2.09167 1.183822,-3.21174 0.23998,-5.58431 0.338368,-4.5753 -0.42568,-7.9749 -0.193286,-0.56885 -0.355155,-1.14936 -0.579858,-1.70654 -0.646488,-1.60308 -1.548908,-3.16311 -2.795156,-4.3791 -0.874983,-0.85373 -1.361964,-1.04879 -2.396969,-1.64178 -0.402127,-0.1458 -0.787665,-0.35 -1.206384,-0.437422 -1.193257,-0.24912 -2.842238,0.324742 -3.675652,1.200172 -0.214548,0.22536 -0.344255,0.51842 -0.516379,0.77763 -0.131485,0.32363 -0.305306,0.63314 -0.394454,0.97089 -0.0993,0.37621 -0.153245,0.76646 -0.166754,1.15533 -0.0681,1.9601 -0.06423,3.92211 -0.0778,5.88335 -0.01138,1.64377 0.11304,3.28566 0.276574,4.91995 0.409943,3.66545 0.97363,7.30963 1.579176,10.94757 0.487138,3.06175 0.976913,6.12488 1.33872,9.20446 0.202692,2.13877 0.491787,7.82128 0.241025,-1.68072 0.152128,0.19278 0.0063,0.026 0.632368,0.0402 0.03027,8e-4 0.06176,0.0193 0.09036,0.009 0.02664,-0.009 -0.05689,-0.34051 -0.03708,-0.34647 -0.255148,-2.0136 -0.495295,-4.02906 -0.739042,-6.04406 -0.644067,-5.37808 -1.192832,-10.76518 -1.676852,-16.16005 -0.255694,-2.47202 -0.539949,-4.9403 -0.805278,-7.41121 -0.06469,-0.60241 -0.1279,-1.205 -0.184436,-1.80823 -0.04205,-0.44865 -0.07237,-1.796212 -0.111308,-1.34727 -0.09304,1.07276 -0.03465,2.1533 -0.05197,3.22995 0,0 -0.634987,-4.043762 -0.634987,-4.043762 z" />
        </g>
        <path
           style="fill:#000000;stroke-width:0.264583"
           id="path239"
           d="m 96.231541,125.86179 c 0.56573,2.84565 1.308994,5.65095 1.961034,8.47697 0.21271,0.98419 0.39504,1.97525 0.53697,2.97219 0.0394,0.27653 0.0511,0.7814 0.14054,1.05544 0.01,-0.0509 0.0195,-0.10181 0.0293,-0.15271 0,0 0.62815,-4.01069 0.62815,-4.01069 v 0 c 0.008,-0.13873 0.0165,-0.27745 0.0247,-0.41618 -0.0109,-0.41957 -0.0773,-0.80327 -0.15433,-1.21713 -0.17405,-0.93482 -0.37053,-1.86547 -0.59226,-2.79018 -0.71157,-2.88778 -1.48852,-5.76916 -1.884434,-8.72232 0,0 -0.68971,4.80461 -0.68971,4.80461 z" />
        <path
           style="fill:#000000;stroke-width:0.264583"
           id="path241"
           d="m 102.74459,119.56484 c -0.1663,0.0999 -0.34668,0.17942 -0.49889,0.2997 -1.202,0.94982 -2.17984,2.54092 -2.688895,3.96323 -0.16223,0.4533 -0.2567,0.92807 -0.38506,1.3921 -0.34183,2.80605 -0.35421,2.39913 -0.11095,6.81795 0.0231,0.42028 0.1403,0.83847 0.30763,1.2247 0.28744,0.66343 1.033895,1.55413 1.562255,2.03502 0.28591,0.26023 0.62009,0.46188 0.93014,0.69282 0.78538,0.26748 1.07945,0.50227 1.9185,0.28268 0.99179,-0.25958 1.82066,-1.22529 2.17887,-2.1476 0.18421,-0.47431 0.25067,-0.9863 0.376,-1.47944 0.0595,-0.55617 0.13926,-1.11054 0.17838,-1.6685 0.0378,-0.5391 0.052,-1.08001 0.0522,-1.62044 0.001,-3.48921 0.16345,-5.63331 -0.51109,-8.74269 -0.0503,-0.18615 -0.0975,-0.37316 -0.15088,-0.55847 -0.004,-0.0138 -0.17281,-0.58361 -0.22528,-0.65805 -0.13607,-0.19303 -0.70086,-0.17315 -0.72202,0.0904 -0.14108,1.75677 0.0867,3.52378 0.13009,5.28566 0.70741,2.38442 1.51416,4.73855 2.13005,7.14998 0.20354,0.79693 0.37951,1.60065 0.56926,2.40098 0.37449,1.95752 0.635,3.0767 0.8292,5.06482 0.0854,0.87408 0.0442,1.75914 0.15804,2.62996 0.0699,0.53509 0.11534,-2.13956 -0.0259,-1.61872 -0.20794,0.76696 -0.0875,1.58789 -0.17976,2.37716 -0.0816,0.69819 -0.22773,1.38732 -0.34159,2.08098 -0.3401,1.25839 -0.45075,1.97511 -1.04398,3.10695 -0.2753,0.52524 -0.78639,1.31368 -1.39879,1.56195 -0.7047,0.28568 -1.11512,-0.0645 -1.73488,-0.33741 -0.30434,-0.30313 -0.64527,-0.57352 -0.91304,-0.90939 -0.52837,-0.66274 -1.24938,-1.93458 -1.47709,-2.74599 -0.15841,-0.56445 -0.0687,-2.29755 -0.25186,-1.74063 -0.23289,0.70819 -0.51146,1.79339 0.0894,2.23472 0.52077,0.38251 0.23989,-1.26985 0.35983,-1.90478 0.68273,-2.49397 2.08305,-4.66216 3.50789,-6.78438 0.3151,-0.46932 0.64864,-0.92636 0.95399,-1.40208 0.34598,-0.53903 0.66625,-1.09415 0.99938,-1.64122 1.19855,-2.05848 2.35264,-4.15957 3.10309,-6.42933 0.41552,-1.25676 0.48421,-1.71196 0.76671,-2.98362 0.2407,-1.31119 0.40005,-2.64098 0.4003,-3.976 2.7e-4,-1.93308 -0.003,-3.86651 -0.0504,-5.79902 -0.0184,-0.7576 -0.22057,-2.25707 -0.31183,-3.00335 -0.32586,-2.64832 -0.89024,-5.25708 -1.44524,-7.86428 -0.30592,-1.50317 -0.63953,-3.00093 -0.92178,-4.508852 -0.35073,-1.769083 0.0278,-2.969109 -0.56761,4.291062 -0.006,0.0734 0.054,0.13712 0.0838,0.20453 0.0468,0.10624 0.10236,0.20865 0.14582,0.31631 0.0596,0.1475 0.10863,0.29902 0.16295,0.44852 0.68685,2.37633 1.11383,4.8218 1.58633,7.24769 0.8038,3.92848 1.41298,7.892 2.05825,11.84844 0.38729,2.15143 0.65203,4.3243 1.05949,6.47201 0.0834,0.3808 0.16079,0.76417 0.27449,1.13754 0.0218,0.0716 0.0854,0.25846 0.10178,0.26064 0.20814,0.0277 0.41996,-0.002 0.62994,-0.004 -0.0168,-1.69002 0.003,-3.3808 -0.0503,-5.07007 -0.004,-0.13809 -0.0841,-0.26326 -0.12135,-0.39631 -0.0591,-0.21127 -0.1156,-0.42333 -0.16769,-0.63644 -0.12102,-0.49517 -0.30394,-1.31059 -0.37908,-1.80209 -0.0546,-0.35702 -0.0841,-0.71742 -0.12609,-1.07614 -0.0229,-0.35771 -0.0569,-0.71488 -0.0687,-1.07313 -0.011,-0.33287 -0.007,-1.33212 5.2e-4,-0.99916 0.0292,1.254 -0.0187,2.51085 0.064,3.76246 0.0176,0.26661 0.0738,-0.52987 0.13224,-0.7906 0.14177,-0.63291 0.2061,-0.70136 0.46403,-1.2732 0.26145,-0.38933 0.5988,-0.99212 1.14901,-1.02866 0.8814,-0.0586 1.59663,1.1084 2.04261,1.63839 1.7491,2.52895 2.86945,5.41324 3.92058,8.28348 0.27717,0.81233 0.57128,1.61893 0.88434,2.41812 0.0164,0.0419 0.17499,0.53204 0.30575,0.61815 0.0254,0.0167 0.0511,-0.0329 0.0767,-0.0494 0.099,-1.08011 0.19799,-2.16022 0.29699,-3.24033 0,0 -0.21304,1.90676 -0.21304,1.90676 v 0 c 0.14011,-0.99674 0.28022,-1.99347 0.42033,-2.9902 -0.0494,-0.38889 -0.15884,-0.67619 -0.31538,-1.03584 -0.32033,-0.7359 -0.60947,-1.48477 -0.89701,-2.23392 -1.1334,-2.85923 -2.29899,-5.74233 -4.0786,-8.27236 -0.59546,-0.70307 -0.98568,-1.34737 -1.8389,-1.74679 -0.96362,-0.4511 -1.75906,0.22202 -2.2848,0.95263 -0.11218,0.20525 -0.24185,0.40186 -0.33653,0.61574 -0.15328,0.34629 -0.414,1.17246 -0.42949,1.53948 -0.1071,2.53684 -0.21676,5.10238 0.0308,7.63742 0.0508,0.37073 0.0914,0.74301 0.15239,1.11219 0.074,0.44789 0.28844,1.43264 0.39278,1.88954 0.46645,2.04246 0.86129,4.26015 0.31572,-3.61338 0.20819,0.006 0.41704,0.0352 0.62455,0.0175 0.005,-5.3e-4 -0.0188,-0.0651 -0.0597,-0.20883 -0.0962,-0.33768 -0.17859,-0.67915 -0.24901,-1.02316 -0.39527,-2.04288 -0.72016,-4.0989 -1.09418,-6.14568 -0.67853,-3.95638 -1.30501,-7.92232 -2.06714,-11.86378 -0.159,-0.83737 -0.47636,-2.51437 -0.64233,-3.36656 -0.26755,-1.37366 -0.50088,-2.76947 -1.00746,-4.08062 -0.0799,-0.18059 -0.24826,-0.570552 -0.34738,-0.762332 -0.0397,-0.0768 -0.11579,-0.30956 -0.13057,-0.22431 -0.61415,3.542862 -0.93301,3.158052 -0.52828,4.917752 0.32137,1.45751 0.63462,2.91673 0.94553,4.37651 0.56262,2.56757 1.10725,5.14247 1.41761,7.7553 0.0556,0.5065 0.1208,1.01204 0.16676,1.5195 0.0451,0.49799 0.0512,1.99329 0.10637,1.49631 0.10451,-0.94235 0.0332,-1.89598 0.0431,-2.84405 0.005,-0.44056 -0.006,0.8814 -0.0271,1.32145 -0.0577,1.17573 -0.12928,1.50687 -0.28972,2.69175 -0.2529,1.28632 -0.3134,1.761 -0.70074,3.03325 -0.69849,2.29427 -1.80455,4.43248 -3.00672,6.4983 -0.32882,0.53216 -0.64962,1.06934 -0.98645,1.59646 -1.70719,2.67173 -3.66595,5.24175 -4.60997,8.31462 -0.78891,3.47797 -0.69227,2.41893 -0.4689,7.91152 0.0248,0.61071 0.16638,1.21751 0.35454,1.79903 0.27219,0.84124 1.0553,2.16362 1.62805,2.83937 0.3158,0.37259 0.71212,0.66867 1.06818,1.003 0.83494,0.33873 1.26516,0.70473 2.19171,0.3727 0.33651,-0.12059 0.62115,-0.36847 0.87461,-0.62053 1.10776,-1.10167 1.49646,-2.69127 1.89816,-4.13616 0.12367,-0.7143 0.28061,-1.42363 0.371,-2.1429 0.10143,-0.80708 0.18614,-1.61853 0.20392,-2.43177 0.0611,-2.79397 0.13177,-6.45276 -0.18858,-9.45324 -0.20691,-1.93807 -0.4922,-3.18086 -0.86488,-5.09172 -0.52522,-2.25164 -0.57172,-2.54487 -1.1634,-4.72707 -0.48733,-1.79732 -1.07985,-3.5708 -1.43601,-5.4014 -0.01,1.4802 0.17433,2.9744 -0.0291,4.44059 -0.11356,0.81864 -0.8034,-0.59656 -0.54305,0.0124 0.0404,0.0946 0.079,0.19023 0.11043,0.28818 0.0509,0.1588 0.091,0.32091 0.13643,0.48136 0.15329,0.68574 0.20951,0.87372 0.30579,1.62232 0.0506,0.39322 0.0696,1.57641 0.12058,1.18325 0.11432,-0.88106 0.0218,-1.77732 0.0716,-2.66436 0.0618,-1.101 -0.0528,4.3874 -0.14648,3.30495 -0.089,0.47214 -0.12254,0.95818 -0.26696,1.41641 -0.25687,0.81495 -0.91417,1.76398 -1.76989,2.04204 -0.70019,0.22753 -0.95204,0.0222 -1.62197,-0.19384 -0.28316,-0.21476 -0.5938,-0.39746 -0.84949,-0.64429 -0.62848,-0.60668 -1.06512,-1.26655 -1.347455,-2.09925 -0.13187,-0.38892 -0.15777,-1.61111 -0.23908,-1.20858 -0.18416,0.91178 -0.0985,1.85941 -0.0802,2.78941 0.009,0.46251 0.0718,-0.92238 0.10779,-1.38357 0.10745,-0.46124 0.17948,-0.93219 0.322345,-1.38372 0.53143,-1.67958 1.6141,-3.14179 2.88306,-4.33911 0,0 -0.17869,-4.04146 -0.17869,-4.04146 z" />
        <path
           style="fill:#000000;stroke-width:0.264583"
           id="path243"
           d="m 122.53946,131.46831 c 1.7e-4,-1.54543 0.0178,-3.09095 5.2e-4,-4.63629 -0.004,-0.35468 -0.15558,-2.25903 -0.17077,-2.45844 -0.1583,-2.07856 -0.31268,-4.15741 -0.46978,-6.23607 -0.36584,-4.15314 -0.61678,-8.31504 -0.94666,-12.47083 -0.15276,-1.05567 -0.12725,-2.14677 -0.33594,-3.1962 -0.0228,-0.11454 -1.5e-4,-0.34393 -0.11615,-0.33051 -0.97813,0.11316 -0.73572,0.77633 -0.78421,1.47592 -0.0291,1.25159 -0.0629,2.19054 -0.036,3.46726 0.0486,2.30628 0.0704,4.61399 0.18672,6.91785 0.0488,0.96659 0.19199,1.92624 0.30828,2.88704 0.32671,2.69949 0.43236,3.16252 0.87115,5.81551 0.48666,2.25224 0.94568,4.57241 2.03536,6.63199 0.51929,0.98148 0.86577,1.81783 2.18693,1.61954 0.53295,-0.08 0.96771,-0.47461 1.45156,-0.71193 0.44745,-0.20875 0.8949,-0.4175 1.34236,-0.62625 0,0 -0.0176,-1.20819 -0.0176,-1.20819 v 0 c -0.43452,-0.0794 -0.86903,-0.15884 -1.30355,-0.23825 -0.91883,-0.71439 -1.59829,-1.15637 -2.33878,-2.05978 -1.70539,-2.08065 -2.18532,-5.0244 -2.76869,-7.55571 -0.42313,-2.56223 -0.55673,-3.16639 -0.84813,-5.7873 -0.11023,-0.99142 0.0269,-2.0298 -0.27778,-2.97965 -0.17462,-0.54439 0.30562,2.08121 -0.1294,1.71025 -0.0589,-0.0502 0.0406,-2.92572 0.0492,-3.21026 0.0435,-0.91675 0.29669,-0.87303 -0.53055,-1.25395 -0.0418,-0.0192 0.039,0.0842 0.0488,0.12911 0.0412,0.18887 0.0742,0.37954 0.10396,0.57056 0.12443,0.79902 0.17447,1.32377 0.2698,2.15526 0.35887,4.06155 0.63427,8.13047 0.98457,12.19284 0.15427,2.10501 0.30701,4.21013 0.45718,6.31544 0.0334,0.46856 0.0701,0.93692 0.0982,1.40584 0.0207,0.34513 0.0393,1.3818 0.048,1.03616 0.0277,-1.1058 0.006,-2.21228 0.009,-3.31842 0,0 0.62213,3.94746 0.62213,3.94746 z" />
        <path
           style="fill:#000000;stroke-width:0.264583"
           id="path245"
           d="m 118.54687,119.24893 c 1.08548,-0.24568 2.17123,-0.28015 3.20762,-0.74567 1.31245,-0.58953 1.62108,-0.99464 2.70832,-1.92917 0,0 -0.01,-0.84277 -0.01,-0.84277 v 0 c -0.43968,-0.27228 -0.85321,-0.59222 -1.31905,-0.81682 -0.95533,-0.4606 -1.73138,-0.62153 -2.77625,-0.66472 -0.37645,-0.0156 -0.75239,0.0422 -1.12882,0.0583 -0.25512,0.0109 -0.51049,0.0153 -0.76573,0.0229 0,0 0.0835,4.9179 0.0835,4.9179 z" />
      </g>
      <path
         style="fill:#000000;stroke-width:0.264583"
         id="path385"
         d="m 51.175528,120.92773 c 0.275114,-0.57603 0.576291,-1.14308 0.936831,-1.67055 0.02878,-0.1347 0.20387,-0.17033 0.252733,-0.28846 0.139144,-0.33637 0.187735,-0.70341 0.279802,-1.0556 0,0 -0.07292,-1.84127 -0.07292,-1.84127 v 0 c -0.0453,-0.0843 -0.302114,-0.6359 -0.462568,-0.68869 -0.07473,-0.0246 -0.318923,0.29578 -0.339526,0.32033 -0.399225,0.55972 -0.726419,1.16284 -0.996302,1.79532 0,0 0.401955,3.42892 0.401955,3.42892 z" />
      <path
         style="fill:#000000;stroke-width:0.264583"
         id="path387"
         d="m 74.619069,116.75494 c 0.659884,-0.46184 1.225034,-1.04664 1.827307,-1.58026 0.461532,-0.35118 0.352706,-0.88241 0.350867,-1.41236 0,0 -0.08595,-1.70172 -0.08595,-1.70172 v 0 c -0.07154,-0.39949 -0.08733,-1.00638 -0.375327,-0.82936 -0.06946,0.0427 -0.116253,0.11434 -0.174376,0.17152 -0.586878,0.58157 -1.203426,1.13078 -1.78883,1.71318 0,0 0.246312,3.639 0.246312,3.639 z" />
    </g>
  </g>
</svg>
