<?xml version="1.0" encoding="UTF-8" standalone="no"?>
<!-- Created with Inkscape (http://www.inkscape.org/) -->

<svg
   width="151.99986mm"
   height="148.90065mm"
   viewBox="0 0 151.99986 148.90065"
   version="1.1"
   id="svg5"
   inkscape:version="1.2.2 (732a01da63, 2022-12-09)"
   sodipodi:docname="shipright.svg"
   xmlns:inkscape="http://www.inkscape.org/namespaces/inkscape"
   xmlns:sodipodi="http://sodipodi.sourceforge.net/DTD/sodipodi-0.dtd"
   xmlns="http://www.w3.org/2000/svg"
   xmlns:svg="http://www.w3.org/2000/svg">
  <sodipodi:namedview
     id="namedview7"
     pagecolor="#505050"
     bordercolor="#ffffff"
     borderopacity="1"
     inkscape:showpageshadow="0"
     inkscape:pageopacity="0"
     inkscape:pagecheckerboard="1"
     inkscape:deskcolor="#505050"
     inkscape:document-units="mm"
     showgrid="false"
     inkscape:zoom="0.61460257"
     inkscape:cx="-83.793987"
     inkscape:cy="292.87219"
     inkscape:window-width="1920"
     inkscape:window-height="1009"
     inkscape:window-x="-8"
     inkscape:window-y="-8"
     inkscape:window-maximized="1"
     inkscape:current-layer="layer1">
    <inkscape:grid
       type="xygrid"
       id="grid1785"
       originx="-33.107632"
       originy="-58.211289" />
  </sodipodi:namedview>
  <defs
     id="defs2" />
  <g
     inkscape:label="Layer 1"
     inkscape:groupmode="layer"
     id="layer1"
     transform="translate(-33.107633,-58.211289)">
    <path
       id="path1017"
       style="fill:#000000;stroke-width:0.287116"
       d="m 169.17468,126.35012 -0.29391,0.10987 c 0.008,0.006 0.029,0.0184 0.04,0.0258 0.0847,-0.045 0.16925,-0.0904 0.25386,-0.13566 z m 15.93281,0.85604 c -2.13795,0.58823 -4.28423,1.13459 -6.39145,1.88229 -0.52697,0.18401 -1.05894,0.35906 -1.58822,0.54578 -0.1135,0.0655 -0.22887,0.12554 -0.34198,0.19219 -0.30098,0.17075 -0.60099,0.34413 -0.90076,0.51815 -0.5467,0.3881 -1.08893,0.78534 -1.62778,1.18954 -0.42557,0.36201 -0.85128,0.72319 -1.2893,1.06141 -1.09239,0.8066 -2.18892,1.60727 -3.31515,2.33764 -1.10307,0.69469 -2.22363,1.34485 -3.36771,1.92688 -1.1299,0.58977 -2.24919,1.2107 -3.37773,1.80442 -1.0806,0.57994 -2.15592,1.1786 -3.19849,1.86157 -0.92009,0.60459 -1.8382,1.21498 -2.76687,1.79875 -0.99342,0.60108 -1.97875,1.22428 -2.96715,1.83896 -1.19988,0.73439 -2.39449,1.48339 -3.57901,2.25597 -1.04895,0.72112 -2.06809,1.50331 -3.0648,2.33324 -1.12195,0.93232 -2.23248,1.88762 -3.37021,2.78983 -1.23711,0.9853 -2.49297,1.9315 -3.75376,2.86835 -1.32001,0.97385 -2.65839,1.90558 -4.01662,2.79297 -1.33252,0.87902 -2.67498,1.73313 -4.01362,2.59701 -1.18022,0.77382 -2.34715,1.58117 -3.52194,2.36843 -1.15437,0.78026 -2.30681,1.56412 -3.45783,2.35208 -1.42229,0.99288 -2.8446,1.98693 -4.2815,2.94684 -0.85666,0.59061 -1.71975,1.16568 -2.58561,1.73407 -0.31132,0.25923 -0.62486,0.51456 -0.94232,0.76246 -1.48374,1.06098 -2.98499,2.08348 -4.54786,2.94873 -0.61621,0.33508 -1.23668,0.65415 -1.86062,0.96157 -0.47829,0.28794 -0.95226,0.58709 -1.433,0.86859 -1.22654,0.73787 -2.45459,1.47548 -3.64661,2.29807 -1.14868,0.78613 -2.2858,1.59852 -3.39827,2.46324 -1.28606,0.96771 -2.60211,1.86925 -3.91097,2.78732 -1.431498,0.98568 -2.879077,1.94023 -4.355598,2.81559 -1.475093,0.84516 -2.967707,1.6405 -4.476264,2.38725 -1.367465,0.68345 -2.726076,1.39858 -4.119267,1.99722 -1.276281,0.55826 -2.545625,1.13989 -3.814841,1.72276 -1.499422,0.68953 -3.007025,1.34971 -4.519329,1.99345 -1.44415,0.64726 -2.888027,1.30416 -4.360606,1.84337 -1.727794,0.59315 -3.4545,1.1941 -5.187262,1.76421 -1.772656,0.56859 -3.55169,1.10431 -5.330965,1.63923 -1.361355,0.39904 -2.728945,0.77226 -4.109254,1.05388 -1.128161,0.21315 -2.258989,0.4128 -3.396256,0.53323 -1.162364,0.10439 -2.328406,0.17506 -3.493892,0.1702 -1.174995,-0.0309 -2.354601,-0.0893 -3.519928,-0.2889 -0.928897,-0.2422 -1.845732,-0.56002 -2.734329,-0.97978 -0.728875,-0.37822 -1.444448,-0.79606 -2.118466,-1.31326 -0.539779,-0.43365 -1.044014,-0.92506 -1.516123,-1.46967 -0.425303,-0.50378 -0.797327,-1.06039 -1.090528,-1.69826 -0.286872,-0.57874 -0.541489,-1.18202 -0.75005,-1.8107 -0.04079,-0.0225 -0.08203,-0.0436 -0.122671,-0.0666 -0.10785,-0.0609 -0.434909,-0.22929 -0.32095,-0.18967 0.163123,0.0568 0.261208,0.0948 0.408072,0.14697 -0.06416,-0.19956 -0.124658,-0.40128 -0.17875,-0.60608 -0.227396,-0.90831 -0.385325,-1.84167 -0.500701,-2.78292 -0.127992,-0.91271 -0.248237,-1.82788 -0.330963,-2.74902 -0.06652,-0.91371 -0.101441,-1.8352 -0.04105,-2.75152 0.111285,-1.39699 0.293822,-2.78241 0.55728,-4.14769 0.296437,-1.63728 0.659934,-3.24968 1.04296,-4.85802 l -5.57831,2.08953 C 18.200537,254.10892 138.99186,163.54551 185.10749,127.20616 Z M 45.500018,178.1354 c -0.0076,0.0407 -0.01656,0.0811 -0.02403,0.12184 0.0418,-0.0146 0.08098,-0.0324 0.122171,-0.0477 -0.03274,-0.0225 -0.06518,-0.0461 -0.09664,-0.0728 -4.94e-4,-4e-4 -4.8e-5,-7.6e-4 -0.0016,-7.6e-4 z m 2.588123,17.20878 v 6.4e-4 c 4.94e-4,7e-5 4.37e-4,-8e-5 0.0016,0 -4.68e-4,-3e-4 -4.85e-4,-3.3e-4 -0.0016,-6.4e-4 z m 0.0016,6.4e-4 c 0.02957,0.0183 0.05899,0.0368 0.08912,0.054 0.116455,0.0636 0.234314,0.12141 0.353495,0.17396 0.01103,7.7e-4 0.02205,0.003 0.03305,0.003 -0.04553,-0.0529 -0.08277,-0.11023 -0.112156,-0.17082 -0.121674,-0.016 -0.242083,-0.0426 -0.36351,-0.0609 z" />
  </g>
  <g
     inkscape:groupmode="layer"
     id="layer3"
     inkscape:label="Layer 2"
     transform="translate(-33.107633,-58.211289)">
    <path
       style="fill:#000000;stroke-width:0.287116"
       id="path1594"
       d="m 94.260215,100.95131 c 2.622505,1.92678 5.240655,4.40339 6.605855,7.92753 0.28859,0.74496 -0.75165,-1.36198 -1.12747,-2.04299 1.27397,3.93716 2.10136,8.16642 1.79345,12.44718 -0.21127,2.93725 -0.64403,4.46838 -1.25085,7.31522 -1.33233,5.43621 -2.994822,10.74679 -4.974809,15.86266 -0.579721,1.48392 -1.185177,2.95171 -1.776159,4.42852 -1.018378,2.44067 -0.227569,0.54661 2.773601,5.95181 0.830157,-2.44207 2.210507,-4.44056 3.595787,-6.40794 1.9957,-2.69749 4.25459,-5.06397 6.77318,-6.95926 1.78437,-1.34277 2.49206,-1.67058 4.38611,-2.76157 3.1333,-1.60397 6.42361,-2.70694 9.78386,-3.22677 2.18053,-0.33732 2.89357,-0.29785 5.06725,-0.37209 5.04885,0.36042 10.0083,1.67226 14.85544,3.42646 2.75269,1.07748 5.34834,2.68061 7.75874,4.65368 0.45379,0.47896 1.07972,0.79573 1.43589,1.41549 0.21354,0.30131 -0.75017,1.32043 0.77913,-0.54235 0.0321,-0.0392 -0.0658,-0.0793 -0.0859,-0.12937 -0.0282,-0.0705 -0.0375,-0.15053 -0.0563,-0.2258 -0.10335,-0.79326 -0.15229,-1.59396 -0.25942,-2.38708 -0.33694,-2.09663 -0.66108,-4.19336 -1.08841,-6.26452 -0.7043,-3.06329 -1.58048,-6.06253 -2.64094,-8.95929 -0.17877,-0.41417 -0.34658,-0.83609 -0.53631,-1.24252 -2.59694,-5.56291 -3.252,-7.71298 -6.32849,-11.58063 -1.80187,-2.13167 -3.87112,-3.88209 -6.01041,-5.43247 -1.32544,-0.70628 -2.7085,-1.35231 -4.14207,-1.61797 -1.57051,-0.29105 -3.18029,-0.17959 -4.75846,-0.11065 -2.59791,0.12794 -5.17966,0.58061 -7.78011,0.65033 -0.59462,0.0159 -1.18953,-6.4e-4 -1.78428,-9.9e-4 -3.97804,-0.31642 -7.92922,-1.38649 -11.69581,-3.01922 -0.97467,-0.42249 -1.9272,-0.92142 -2.89079,-1.38213 -2.52031,-1.185045 -4.803212,-2.960545 -7.127632,-4.624865 -0.752034,-0.53847 -1.517816,-1.04622 -2.272063,-1.57977 0,0 0.675668,2.05979 0.675668,2.05979 v 0 c 0.507818,0.83858 0.967491,1.72666 1.523435,2.51575 2.660925,3.776815 6.165682,6.379475 9.752742,8.526475 2.19101,1.06481 3.61493,1.82416 5.86586,2.65406 2.94963,1.08751 6.01829,1.72878 9.07919,2.021 3.21017,0.0237 6.40294,-0.28565 9.59994,-0.63036 1.11948,-0.0503 1.96839,-0.12556 3.09039,-0.0258 1.9097,0.16971 3.75117,0.85491 5.46729,1.90734 2.09518,1.547 4.11943,3.28901 5.83603,5.46483 0.65379,0.85024 1.29805,1.70621 1.88155,2.63545 0.20983,0.33417 0.76507,1.39998 0.60876,1.02247 -1.08378,-2.61754 -3.60883,-7.88779 -1.82427,-4.14549 1.12273,2.86157 2.03028,5.84607 2.74918,8.90598 0.43312,1.99824 0.76148,4.02195 1.02678,6.06585 0.12368,0.77285 0.2187,1.552 0.24772,2.34046 0.002,0.0818 0.007,0.16358 0.004,0.24537 -0.002,0.078 -0.0752,0.25007 -0.0144,0.23354 2.03714,-0.55361 0.94678,-0.3053 0.71489,-0.50801 -0.4877,-0.3721 -0.96498,-0.76619 -1.46665,-1.10937 -2.45875,-1.66879 -5.01992,-3.12177 -7.71813,-4.07089 -4.86316,-1.55896 -9.83296,-2.86163 -14.86785,-2.98243 -0.82412,0.0696 -1.65018,0.10938 -2.47235,0.2087 -4.26551,0.51533 -8.49174,1.65701 -12.44503,3.76323 -0.75606,0.45248 -1.52806,0.86527 -2.26819,1.35742 -3.34949,2.22723 -6.33337,5.22781 -9.025574,8.55375 -1.446918,1.89128 -2.857534,3.82601 -3.902956,6.11257 3.064342,6.24232 2.208887,7.80551 3.046882,5.12804 0.529909,-1.60112 1.028018,-3.21829 1.580388,-4.80775 1.76705,-5.37654 3.40195,-10.8194 4.78756,-16.37192 0.51403,-2.29568 1.17529,-4.89723 1.40515,-7.2841 0.416,-4.31987 -0.43345,-8.63339 -1.63663,-12.64387 -0.98615,-2.26176 -3.00817,-7.56283 -4.78383,-10.28575 -1.514282,-2.322105 -3.521759,-4.086965 -5.545157,-5.632365 0,0 2.004872,5.567505 2.004872,5.567505 z" />
    <path
       style="fill:#000000;stroke-width:0.287116"
       id="path1596"
       d="m 41.213208,128.67918 c 2.175541,0.94466 4.086582,2.75234 5.637474,4.86506 0.463748,0.63175 0.877467,1.31853 1.3162,1.97778 0.399975,0.78661 1.611576,3.13689 1.199927,2.35981 -0.627856,-1.18519 -0.816051,-2.99494 -1.848617,-3.58435 -0.776027,-0.44295 0.62709,1.99268 0.861515,3.02091 0.520898,2.28478 0.814085,4.69496 0.958125,7.05982 0.07295,1.19789 0.06329,2.40145 0.09492,3.60217 0.02781,5.74893 -0.965306,11.35212 -2.332976,16.80289 -0.403422,1.50051 -0.832003,2.98982 -1.213527,4.49947 -0.795497,3.08592 -3.968336,-4.91561 3.742812,7.06274 0.07149,0.11109 0.11856,-0.2437 0.17784,-0.36556 1.347679,-2.32561 3.127555,-4.16362 4.882202,-5.9808 2.778219,-2.83122 5.775058,-5.31859 9.067465,-7.10888 0.706151,-0.38399 1.433417,-0.70372 2.150124,-1.05558 2.85428,-1.16679 5.827786,-2.17564 8.85061,-2.28021 1.72361,-0.0597 2.744047,0.17272 4.443824,0.42873 3.867271,0.75054 7.772994,1.0953 11.643612,1.8166 1.857535,0.4701 3.735127,0.66797 5.624929,0.74033 0.54082,7.6e-4 1.083733,0.095 1.624863,0.0554 2.47945,-0.84577 -3.072452,-4.87324 -3.183461,-7.88038 -0.512546,-0.90699 -1.069042,-1.77469 -1.633168,-2.63182 -1.371567,-2.28914 -2.789436,-4.52669 -4.283687,-6.69213 -2.631001,-3.5654 -5.620841,-6.68548 -8.574811,-9.81708 -2.839765,-2.85735 -5.834666,-5.44572 -9.036833,-7.61721 -2.215056,-1.49849 -4.673305,-2.02709 -7.156965,-2.18838 -2.316756,-0.0286 -4.593858,0.58803 -6.886191,0.92679 -2.935717,0.42329 -5.874655,0.79275 -8.824711,1.0119 -1.679412,0.0693 -3.370702,0.15669 -5.038307,-0.17971 -1.671648,-0.33724 -3.290811,-1.06658 -4.918054,-1.6325 -1.882041,-0.84574 -0.992576,-0.36492 -2.676587,-1.41838 0,0 0.943773,2.77154 0.943773,2.77154 v 0 c 2.393251,3.03358 1.127091,1.56991 3.80713,4.37919 0.693527,0.56046 1.351142,1.19793 2.080586,1.68134 2.741338,1.81672 5.788249,1.84345 8.793119,1.66255 2.973267,-0.19739 5.937113,-0.51285 8.894963,-0.9452 0.548314,-0.076 1.969514,-0.26967 2.527744,-0.35938 1.418644,-0.22796 2.835807,-0.55183 4.273523,-0.46917 2.391533,0.17364 4.720116,0.71817 6.841053,2.19873 3.139849,2.12046 6.108808,4.61813 8.847426,7.48867 2.965433,3.14136 5.959287,6.28736 8.512066,9.97167 1.519847,2.28434 2.936475,4.66233 4.374326,7.02695 0.579402,0.91615 1.104216,1.9335 1.822776,2.68473 2.83434,0.78868 -3.865474,-6.62196 -2.640715,-7.53274 -0.493808,0.0744 -0.992063,0.0846 -1.489018,0.0964 -1.828413,0.01 -3.642515,-0.20909 -5.454241,-0.51489 -3.861613,-0.48989 -7.730907,-0.88988 -11.572786,-1.59893 -1.613284,-0.17512 -2.898303,-0.37905 -4.527283,-0.28958 -3.072274,0.16876 -6.08228,1.21677 -8.981446,2.42359 -0.728541,0.36412 -1.46863,0.69385 -2.185629,1.09242 -3.30779,1.8387 -6.404276,4.26082 -9.264795,7.02633 -1.827095,1.76539 -3.658312,3.54591 -5.201723,5.71068 -0.09188,0.12793 -0.343903,0.23442 -0.275652,0.38382 1.121518,2.45509 2.478448,4.72885 3.698436,7.10889 0.0089,0.0175 -0.03333,0.0184 -0.04882,0.0109 -0.07686,-0.0359 0.0632,-0.32128 0.01618,-0.32876 0.226349,-1.65073 0.629615,-3.25381 0.975727,-4.86841 1.203593,-5.66855 2.262196,-11.42106 2.272391,-17.3238 -0.02688,-1.22631 -0.01658,-2.45476 -0.08066,-3.67888 -0.118122,-2.25655 -0.389577,-4.93478 -0.841346,-7.1346 -1.092126,-5.31796 -3.578966,-9.99173 -6.042606,-14.46861 -0.458251,-0.64956 -0.889743,-1.33044 -1.374747,-1.94868 -1.576186,-2.0092 -3.488552,-3.7172 -5.768862,-4.04153 0,0 2.400576,5.98711 2.400576,5.98711 z" />
    <path
       style="fill:#000000;stroke-width:0.287116"
       id="path1598"
       d="m 67.988178,161.40126 c 0.02737,0.38735 0.06651,0.77366 0.08212,1.16205 0.01865,0.46481 0.0056,0.93097 0.02065,1.396 0.02292,0.71022 0.128544,2.14742 0.09825,2.89522 -0.01338,0.33059 -0.09968,0.65037 -0.137569,0.97797 1.213067,1.87011 2.238639,3.95919 3.639201,5.61036 0.263353,0.31046 -0.01267,-0.90678 -0.03338,-1.35939 -0.02896,-0.63292 -0.03992,-1.26952 -0.115579,-1.89634 -0.112008,-0.92797 -0.301173,-1.8387 -0.446375,-2.75941 -0.141053,-0.89441 -0.196739,-1.81518 -0.412382,-2.68588 -0.339449,-1.37059 -0.830931,-2.67449 -1.246397,-4.01172 0,0 -0.220236,-0.37235 -0.220236,-0.37235 v 0 c -1.408624,0.62095 -0.823085,-0.0291 -0.937829,2.29426 -0.188075,3.80802 -0.141559,-0.32987 -0.093,3.455 0.005,0.38222 -0.157538,0.81544 -0.0055,1.14678 1.056521,2.30337 2.373729,4.40249 3.560597,6.60371 -0.447337,-1.0427 -0.534486,-2.25516 -0.659884,-3.41001 -0.124504,-1.14662 -0.260132,-2.2913 -0.383046,-3.43817 -0.04224,-0.39412 -0.06518,-0.79112 -0.09778,-1.18668 0,0 -2.611778,-4.4214 -2.611778,-4.4214 z" />
    <path
       style="fill:#000000;stroke-width:0.287116"
       id="path1600"
       d="m 121.829,127.09549 c 0.19658,2.88519 0.2165,5.80671 -0.0334,8.68689 -0.19049,2.625 -0.32167,2.42887 3.2989,5.4764 0.45636,0.38413 -0.0524,-1.38434 -0.17412,-2.05659 -0.21728,-1.19936 -0.55943,-2.35766 -0.83915,-3.53649 0,0 -0.73447,-1.2837 -0.73447,-1.2837 v 0 c -0.33883,0.0911 -0.73927,0.0128 -1.01652,0.27351 -1.82968,1.72098 3.47894,11.35205 2.69157,6.72797 -0.0983,-2.9948 0.15582,-5.99487 -0.0406,-8.98565 0,0 -3.15225,-5.30234 -3.15225,-5.30234 z" />
    <path
       style="fill:#000000;stroke-width:0.287116"
       id="path1602"
       d="m 54.958882,109.30027 c 1.095754,3.73301 1.784408,7.63131 2.408801,11.52402 0.449921,2.89884 0.455386,3.62051 2.806794,7.05247 0.256621,0.37454 0.459484,-0.88715 0.43052,-1.37968 -0.04915,-0.8357 -0.434306,-1.58495 -0.651457,-2.37742 0,0 -1.537846,-2.62141 -1.537846,-2.62141 v 0 c -0.174369,0.0896 -0.416772,0.0736 -0.523106,0.26878 -0.07115,0.13058 0.310029,-0.136 0.378279,-0.003 0.871571,1.69846 1.459903,3.60991 2.340437,5.30107 0.216141,0.41513 -0.216752,-0.95362 -0.325131,-1.43043 -0.791393,-3.99958 -1.416631,-8.07257 -2.546374,-11.95099 0,0 -2.780917,-4.38342 -2.780917,-4.38342 z" />
    <path
       style="fill:#000000;stroke-width:0.287116"
       id="path1604"
       d="m 122.11658,84.51972 c -0.39427,3.94842 -0.29012,7.937695 -0.48582,11.902915 -0.0924,3.11504 -0.39002,3.49872 3.25618,6.676945 0.87096,0.75917 -0.96448,-2.36979 -1.44671,-3.554695 0,0 -0.23572,-0.40334 -0.23572,-0.40334 v 0 c -0.45857,-0.48927 -1.64763,-2.14152 -1.37571,-1.4678 0.87192,2.16035 2.14678,4.025165 3.22016,6.037745 -0.0406,-0.14298 -0.10323,-0.27898 -0.12215,-0.42895 -0.0565,-0.44825 -0.0686,-0.90357 -0.10287,-1.35536 -0.0364,-0.6945 -0.0919,-1.38784 -0.10943,-2.083515 -0.0863,-3.43438 0.21181,-6.85959 0.24548,-10.29142 0,0 -2.84341,-5.032525 -2.84341,-5.032525 z" />
    <path
       style="fill:#000000;stroke-width:0.287116"
       id="path1606"
       d="m 37.453128,78.976666 c 1.945162,1.456044 3.733217,3.248744 5.218394,5.402104 0.452425,0.65597 0.857905,1.36065 1.28686,2.04098 0.389681,0.75981 1.527691,3.062905 1.169046,2.27942 -0.706474,-1.54334 -1.295361,-3.20338 -2.213214,-4.56047 -0.467216,-0.6908 0.593013,1.65487 0.827542,2.51169 0.501631,1.83262 0.81638,3.709685 1.012539,5.628825 0.0946,0.92554 0.122622,1.85988 0.183933,2.78983 0.205281,4.967985 -0.829712,9.742845 -2.088167,14.396845 -0.676778,2.30261 -1.43037,4.57638 -2.336885,6.7528 0.05202,0.0689 -0.484671,0.82154 -0.231941,0.58247 2.51086,-1.6378 0.295255,-0.41942 3.882235,7.40561 0.02133,0.0466 -0.01301,-0.10781 -0.0062,-0.16076 0.01372,-0.10695 0.03825,-0.21173 0.0671,-0.31382 0.136894,-0.48436 0.268794,-0.77431 0.458315,-1.2554 0.936833,-2.2697 1.989546,-4.48562 3.323553,-6.42876 0.420125,-0.61195 0.873458,-1.18678 1.310187,-1.78017 2.966088,-3.58154 6.486768,-6.49758 10.483914,-7.9095 0.860997,-0.30413 1.750478,-0.46297 2.625718,-0.69446 3.179805,-0.58479 6.364268,-0.26322 9.431506,0.91842 1.411138,0.54363 2.001817,0.91279 3.319728,1.62611 2.012174,1.11522 3.809924,2.70021 5.587717,4.30133 0.497623,0.57582 1.108027,0.91904 1.688814,1.31819 0.126972,0.12685 0.402975,-0.0343 0.173211,0.1467 0.122014,-0.0323 0.249319,0.0541 0.381494,0.0744 2.165939,0.7388 -1.726447,-5.63353 -2.796265,-8.30191 -0.403345,-0.80805 -0.805028,-1.61694 -1.185673,-2.4422 1.002476,2.16648 1.985531,4.34728 3.007427,6.49944 0.168584,0.35504 -0.304798,-0.73295 -0.446494,-1.10602 -0.186977,-0.49226 -0.360785,-0.99217 -0.539257,-1.48933 -0.689737,-1.92134 -1.39978,-3.79793 -2.187755,-5.6596 C 76.408713,96.727795 74.546481,91.201165 71.499419,86.83591 70.469197,85.36001 70.143013,85.08772 68.984292,83.82237 67.158383,82.21164 65.481349,80.353 63.689164,78.68768 62.495632,77.578639 62.3315,77.502225 61.083222,76.553226 59.065123,75.17406 56.911031,74.129829 54.624673,73.739184 54.19056,73.665014 53.75198,73.640364 53.315634,73.59096 c -1.311962,-0.07076 -2.614603,0.114488 -3.914056,0.307551 -0.458715,0.06815 -0.913877,0.201979 -1.375768,0.208336 -1.316248,0.01813 -3.460743,-0.35442 -4.704649,-0.535369 -1.471597,-0.633432 -3.005971,-0.161182 -4.498677,-0.381206 -0.562803,-0.08295 -1.102135,-0.331354 -1.653205,-0.497031 0,0 0.818738,2.267988 0.818738,2.267988 v 0 c 2.508174,2.165812 4.977143,4.438901 7.975494,5.436631 1.942676,0.64686 3.275922,1.24618 5.261015,1.373 0.463266,0.0296 0.922832,-0.11951 1.38451,-0.17597 1.263847,-0.15456 2.53192,-0.30528 3.803376,-0.1924 0.414962,0.0553 0.832552,0.0854 1.244883,0.16592 2.200077,0.42957 4.278143,1.52591 6.209272,2.88399 0.414032,0.32324 0.836486,0.63009 1.242095,0.96972 2.261974,1.89402 4.29823,4.186225 6.493091,6.195205 0.398972,0.45326 0.816056,0.88263 1.196915,1.35978 1.292894,1.61978 2.362345,3.47303 3.348442,5.39498 0.323649,0.63081 1.224882,2.576705 0.937199,1.919035 -0.767733,-1.755085 -1.585309,-3.475125 -2.377962,-5.212695 0.805775,1.83092 0.863066,1.88519 1.558586,3.76125 1.610795,4.344895 2.662854,8.568445 5.22258,12.488385 0.407677,0.85734 0.823366,1.7086 1.229424,2.56716 1.493843,2.62151 -0.511878,-7.16896 -2.625388,-7.58239 -0.06801,-0.0487 -0.247822,-0.11728 -0.186343,-0.19889 -0.216507,0.10427 -0.05933,0.058 -0.198965,-0.0587 -0.605889,-0.50415 -1.10299,-1.22215 -1.75158,-1.65798 -1.787717,-1.54601 -3.617086,-3.02939 -5.657634,-4.0067 -1.237943,-0.583125 -2.054308,-1.009215 -3.360223,-1.436535 -3.147478,-1.02991 -6.40266,-1.17632 -9.613845,-0.54424 -0.900344,0.24873 -1.814563,0.42857 -2.701024,0.74621 -4.090894,1.465845 -7.656172,4.444375 -10.82187,7.932545 -0.470649,0.57097 -0.960975,1.11747 -1.411946,1.7129 -1.421379,1.87669 -2.483118,4.10026 -3.546923,6.30034 -0.242423,0.51633 -0.486193,1.0299 -0.70866,1.56024 -0.0342,0.0815 -0.1347,0.16315 -0.101454,0.24527 3.341177,8.25287 1.260904,9.25239 3.871493,7.71564 0.271838,-0.24764 0.356893,-0.64061 0.499888,-1.01288 0.830242,-2.3364 1.546449,-4.73566 2.237416,-7.14116 1.231686,-4.7887 2.36056,-9.68321 2.197821,-14.77145 -0.156107,-2.958565 -0.339317,-5.724365 -1.045233,-8.582265 -0.217675,-0.88125 -0.444092,-1.76944 -0.786451,-2.58598 -3.217972,-7.675005 -2.955662,-7.058155 -5.454095,-11.617666 -0.449526,-0.679665 -0.876601,-1.383712 -1.348578,-2.038997 -1.570026,-2.1798 -3.426808,-4.163586 -5.531979,-5.473124 0,0 2.781745,7.577283 2.781745,7.577283 z" />
    <path
       style="fill:#000000;stroke-width:0.287116"
       id="path1608"
       d="m 93.453188,66.984744 c 1.853087,1.218226 3.682536,2.518213 5.391212,4.037873 0.57239,0.509074 1.12339,1.054995 1.68508,1.582494 0.56178,0.603374 1.14345,1.178764 1.68533,1.81012 1.05199,1.225696 2.1253,2.647338 2.95124,4.128426 0.41805,0.749666 1.53048,3.114773 1.12834,2.351523 -2.45097,-4.65194 -2.76969,-6.37051 -1.60426,-2.153025 0.75696,3.408055 0.56444,6.881645 -0.0753,10.278195 -0.19381,0.949945 -0.40469,1.895565 -0.70485,2.801995 -0.1145,0.32018 -0.0103,0.0492 0.0337,0.12937 3.90809,7.13355 2.94879,9.800895 3.92882,6.79585 0.99736,-2.21334 2.48975,-3.92989 4.02562,-5.54276 0.4967,-0.44773 0.96195,-0.95618 1.49007,-1.34317 2.99892,-2.19748 6.61923,-3.053995 10.04856,-3.251425 0.94197,-0.0542 1.88589,0.007 2.82885,0.0111 3.22848,0.21789 6.42925,0.952595 9.4526,2.410315 1.48823,0.71755 1.94712,1.06918 3.32132,1.95697 1.41926,1.05695 2.87334,2.1171 4.11278,3.50015 0.23555,0.22021 0.25548,0.54291 0.54256,0.3887 0.22241,-0.18002 0.46873,-0.32043 0.66724,-0.54007 0.0341,-0.0378 -0.14102,-0.23847 -0.14307,-0.2428 -0.14582,-0.30934 -0.16226,-0.80341 -0.20981,-1.13922 -0.46794,-2.53073 -1.56657,-4.81013 -2.53271,-7.083175 -0.25217,-0.56017 -0.49578,-1.12653 -0.75649,-1.68051 -1.39664,-2.96754 -2.78031,-5.94512 -4.21539,-8.883658 -0.3229,-0.661174 -0.70181,-1.276667 -1.05662,-1.911576 -1.05453,-1.886932 -2.12718,-3.749505 -3.23577,-5.5869 -1.89402,-3.149691 -4.01818,-6.069752 -6.45513,-8.566369 -1.69754,-1.624624 -3.76008,-2.397123 -5.82398,-2.922113 -2.10659,-0.438411 -4.1294,0.526772 -6.11049,1.301348 -3.01489,1.196697 -6.04556,2.475904 -9.23073,2.696695 -0.81887,0.05675 -1.64023,-0.0059 -2.46035,-0.0087 -3.016,-0.150623 -5.861018,-1.348397 -8.7208,-2.420134 0,0 0.60217,1.823158 0.60217,1.823158 v 0 c 1.323955,2.195134 1.908879,3.545487 3.75392,5.119067 2.13056,1.817087 4.74812,2.281521 7.24035,2.566793 0.85134,0.0085 1.70375,0.08024 2.554,0.0256 0.7939,-0.05104 1.58258,-0.19787 2.36917,-0.342068 2.41041,-0.441883 4.77498,-1.164353 7.08265,-2.137534 1.9093,-0.678053 3.87684,-1.425218 5.87593,-0.96705 1.98481,0.520688 3.9094,1.345428 5.49085,2.999759 2.33925,2.457503 4.40875,5.270747 6.21667,8.357335 1.09164,1.861272 2.17539,3.729007 3.22173,5.631097 0.35262,0.641 1.31595,2.63484 1.04461,1.93436 -0.43887,-1.13294 -3.73539,-8.292411 -1.52477,-3.47974 0.93337,2.16601 1.93423,4.33797 2.54964,6.68381 0.0718,0.47438 0.0823,0.46338 0.10945,0.89676 0.002,0.0297 -0.0216,0.550105 0.024,0.523015 0.23849,-0.14151 0.45281,-0.339835 0.67921,-0.509745 0.28942,-0.19196 -0.0912,-0.22566 -0.25498,-0.44712 -1.3121,-1.10895 -2.67072,-2.13197 -4.09212,-3.00719 -1.35066,-0.78057 -1.90659,-1.14786 -3.35413,-1.77892 -3.07681,-1.34135 -6.30894,-1.96918 -9.55865,-2.10978 -0.95774,0.011 -1.91666,-0.0274 -2.87323,0.033 -3.47277,0.21907 -7.35222,1.1073 -10.45441,3.16966 -0.55236,0.36721 -1.04351,0.86385 -1.56527,1.29577 -1.63987,1.56186 -3.20597,3.215255 -4.42664,5.317665 -0.0759,0.1265 -0.28836,0.24049 -0.22787,0.37949 1.12852,2.59328 2.42409,5.06722 3.68432,7.56324 0.0199,0.0393 0.1437,-0.13311 0.15197,-0.14966 0.0309,-0.0617 0.0528,-0.17931 0.0677,-0.24446 0.24067,-1.01342 0.52032,-2.01423 0.67108,-3.05807 0.55985,-3.58558 0.86636,-7.242825 0.17672,-10.846495 -1.38886,-5.56567 -0.4883,-2.51671 -4.64208,-11.639634 -1.47684,-3.243472 -3.65994,-5.819622 -5.96288,-8.130983 -2.285452,-2.1412 -4.633986,-4.339179 -7.317969,-5.63132 0,0 2.731287,7.25479 2.731287,7.25479 z" />
  </g>
  <g
     inkscape:groupmode="layer"
     id="layer4"
     inkscape:label="Layer 3"
     transform="translate(-33.107633,-58.211289)" />
  <g
     inkscape:groupmode="layer"
     id="layer5"
     inkscape:label="Layer 4"
     transform="translate(-33.107633,-58.211289)" />
</svg>
